<svg xmlns="http://www.w3.org/2000/svg" xmlns:xlink="http://www.w3.org/1999/xlink" width="1700" zoomAndPan="magnify" viewBox="0 0 1275 675.000002" height="900" preserveAspectRatio="xMidYMid meet" version="1.0"><defs><clipPath id="97e48d9f9e"><path d="M 1 386 L 1274 386 L 1274 674 L 1 674 Z M 1 386 " clip-rule="nonzero"/></clipPath><clipPath id="6535064709"><path d="M 816 50.148438 L 1274 50.148438 L 1274 566 L 816 566 Z M 816 50.148438 " clip-rule="nonzero"/></clipPath><clipPath id="5eccede2f0"><path d="M 1 526 L 329 526 L 329 674 L 1 674 Z M 1 526 " clip-rule="nonzero"/></clipPath><clipPath id="5517b18016"><path d="M 1 454 L 1274 454 L 1274 674 L 1 674 Z M 1 454 " clip-rule="nonzero"/></clipPath><clipPath id="397443c475"><path d="M 1 339 L 1274 339 L 1274 674 L 1 674 Z M 1 339 " clip-rule="nonzero"/></clipPath></defs><g clip-path="url(#97e48d9f9e)"><path fill="#2f84e0" d="M 1270.183594 519.851562 C 1271.316406 519.152344 1272.4375 518.453125 1273.566406 517.742188 L 1273.566406 855.925781 L 1.433594 855.925781 L 1.433594 744.101562 C 76.359375 739.574219 150.945312 721.226562 219.78125 681.738281 C 267.246094 654.515625 300.867188 623.601562 328.128906 592.242188 C 380.578125 531.925781 409.546875 469.933594 468.40625 429.183594 L 468.421875 429.183594 C 469.464844 428.457031 470.507812 427.746094 471.574219 427.035156 C 487.386719 416.488281 505.351562 407.441406 526.441406 400.34375 C 528.402344 399.667969 530.398438 399.019531 532.421875 398.398438 C 532.625 398.332031 532.816406 398.269531 533.019531 398.21875 C 636.140625 366.375 726.433594 405.648438 816.453125 454.167969 C 818.472656 455.261719 820.507812 456.359375 822.53125 457.464844 C 823.117188 457.78125 823.714844 458.101562 824.300781 458.417969 C 826.308594 459.511719 828.320312 460.605469 830.332031 461.714844 C 831.601562 462.414062 832.875 463.113281 834.132812 463.800781 C 840.253906 467.160156 846.386719 470.554688 852.515625 473.953125 C 853.585938 474.539062 854.640625 475.121094 855.710938 475.707031 C 858.839844 477.4375 861.980469 479.179688 865.109375 480.910156 C 869.539062 483.355469 873.976562 485.796875 878.429688 488.226562 L 879.347656 488.722656 C 881.34375 489.816406 883.339844 490.898438 885.335938 491.992188 C 886.226562 492.476562 887.117188 492.945312 888.007812 493.429688 C 890.386719 494.726562 892.765625 496.011719 895.160156 497.285156 C 897.003906 498.277344 898.847656 499.257812 900.703125 500.234375 C 900.730469 500.25 900.753906 500.273438 900.792969 500.285156 C 902.089844 500.972656 903.402344 501.660156 904.710938 502.347656 C 907.039062 503.582031 909.382812 504.800781 911.722656 506.011719 C 912.929688 506.648438 914.152344 507.269531 915.371094 507.894531 C 916.582031 508.53125 917.800781 509.152344 919.023438 509.765625 C 919.75 510.144531 920.488281 510.515625 921.222656 510.882812 C 922.609375 511.597656 923.996094 512.296875 925.382812 512.984375 C 925.929688 513.25 926.464844 513.53125 927.011719 513.796875 C 929.265625 514.929688 931.515625 516.035156 933.769531 517.128906 C 934.734375 517.601562 935.714844 518.070312 936.679688 518.542969 C 938.132812 519.242188 939.570312 519.941406 941.019531 520.628906 C 942.226562 521.203125 943.4375 521.773438 944.644531 522.347656 C 945.253906 522.640625 945.878906 522.917969 946.488281 523.210938 C 947.074219 523.492188 947.671875 523.757812 948.269531 524.039062 C 948.511719 524.152344 948.753906 524.265625 948.996094 524.367188 C 949.683594 524.6875 950.382812 525.019531 951.082031 525.335938 C 952.328125 525.910156 953.585938 526.480469 954.847656 527.054688 C 954.972656 527.105469 955.089844 527.167969 955.203125 527.207031 C 957.417969 528.210938 959.628906 529.191406 961.855469 530.15625 C 962.554688 530.476562 963.257812 530.78125 963.957031 531.074219 C 963.96875 531.085938 963.980469 531.085938 963.992188 531.097656 C 965.292969 531.660156 966.601562 532.21875 967.910156 532.777344 C 970.101562 533.707031 972.300781 534.636719 974.5 535.539062 C 975.597656 535.984375 976.703125 536.429688 977.796875 536.875 C 979.78125 537.675781 981.777344 538.464844 983.761719 539.242188 C 986.394531 540.269531 989.042969 541.277344 991.6875 542.257812 C 992.171875 542.433594 992.667969 542.613281 993.152344 542.789062 C 994.042969 543.132812 994.945312 543.453125 995.847656 543.769531 C 995.949219 543.808594 996.039062 543.847656 996.140625 543.871094 C 996.203125 543.910156 996.28125 543.933594 996.355469 543.960938 C 996.890625 544.152344 997.425781 544.34375 997.960938 544.519531 C 998.355469 544.671875 998.75 544.8125 999.15625 544.941406 C 999.742188 545.144531 1000.324219 545.359375 1000.910156 545.5625 C 1002.195312 546.007812 1003.480469 546.453125 1004.765625 546.886719 C 1005.082031 546.988281 1005.402344 547.101562 1005.71875 547.203125 C 1006.992188 547.625 1008.277344 548.042969 1009.550781 548.464844 C 1010.617188 548.820312 1011.699219 549.164062 1012.78125 549.496094 C 1014.179688 549.941406 1015.566406 550.371094 1016.964844 550.792969 C 1018.363281 551.226562 1019.765625 551.644531 1021.164062 552.050781 C 1022.574219 552.460938 1023.976562 552.867188 1025.375 553.261719 C 1026.785156 553.65625 1028.1875 554.035156 1029.597656 554.417969 C 1031.085938 554.824219 1032.574219 555.21875 1034.0625 555.589844 C 1035.410156 555.945312 1036.746094 556.277344 1038.082031 556.59375 C 1039.496094 556.9375 1040.921875 557.269531 1042.332031 557.597656 C 1043.757812 557.929688 1045.179688 558.246094 1046.605469 558.554688 C 1049.457031 559.175781 1052.316406 559.761719 1055.179688 560.308594 C 1056.554688 560.574219 1057.941406 560.832031 1059.316406 561.070312 C 1059.570312 561.121094 1059.824219 561.160156 1060.066406 561.210938 C 1061.3125 561.429688 1062.570312 561.632812 1063.820312 561.847656 C 1064.402344 561.9375 1064.976562 562.027344 1065.5625 562.113281 C 1067.863281 562.496094 1070.179688 562.839844 1072.507812 563.144531 C 1072.964844 563.210938 1073.421875 563.273438 1073.894531 563.335938 C 1074.875 563.476562 1075.867188 563.601562 1076.859375 563.707031 L 1076.871094 563.707031 C 1077.519531 563.78125 1078.15625 563.859375 1078.804688 563.933594 C 1078.867188 563.945312 1078.929688 563.960938 1078.984375 563.960938 C 1079.695312 564.046875 1080.40625 564.125 1081.105469 564.1875 C 1081.273438 564.214844 1081.425781 564.238281 1081.578125 564.238281 C 1081.996094 564.289062 1082.417969 564.339844 1082.835938 564.378906 C 1083.027344 564.40625 1083.230469 564.429688 1083.421875 564.441406 C 1083.957031 564.492188 1084.503906 564.542969 1085.039062 564.59375 C 1085.304688 564.621094 1085.570312 564.648438 1085.839844 564.671875 C 1086.410156 564.722656 1086.996094 564.773438 1087.570312 564.824219 C 1087.988281 564.863281 1088.410156 564.902344 1088.828125 564.925781 L 1088.839844 564.925781 C 1089.832031 565.003906 1090.8125 565.078125 1091.804688 565.15625 C 1092.453125 565.207031 1093.089844 565.246094 1093.738281 565.28125 C 1093.929688 565.296875 1094.109375 565.308594 1094.300781 565.320312 C 1094.859375 565.359375 1095.417969 565.398438 1095.976562 565.421875 C 1097.210938 565.5 1098.457031 565.5625 1099.707031 565.613281 C 1100.835938 565.675781 1101.96875 565.714844 1103.101562 565.753906 C 1103.355469 565.765625 1103.597656 565.777344 1103.851562 565.777344 C 1104.769531 565.804688 1105.683594 565.828125 1106.589844 565.855469 L 1106.742188 565.855469 C 1107.289062 565.867188 1107.820312 565.878906 1108.355469 565.878906 C 1108.625 565.878906 1108.902344 565.894531 1109.171875 565.894531 C 1110.199219 565.90625 1111.242188 565.917969 1112.273438 565.917969 L 1112.769531 565.917969 C 1113.332031 565.917969 1113.902344 565.917969 1114.460938 565.90625 C 1115.519531 565.90625 1116.574219 565.894531 1117.628906 565.867188 C 1118.636719 565.855469 1119.628906 565.828125 1120.632812 565.804688 C 1121.816406 565.777344 1123.011719 565.742188 1124.207031 565.675781 C 1124.523438 565.664062 1124.84375 565.652344 1125.160156 565.652344 C 1125.351562 565.640625 1125.542969 565.640625 1125.746094 565.625 C 1126.167969 565.601562 1126.597656 565.574219 1127.03125 565.550781 C 1127.894531 565.511719 1128.773438 565.472656 1129.640625 565.410156 C 1130.121094 565.382812 1130.59375 565.359375 1131.078125 565.332031 C 1131.40625 565.308594 1131.738281 565.28125 1132.070312 565.257812 C 1132.730469 565.21875 1133.390625 565.167969 1134.054688 565.117188 C 1134.90625 565.054688 1135.746094 564.988281 1136.597656 564.914062 C 1138.046875 564.800781 1139.511719 564.660156 1140.972656 564.507812 C 1141.789062 564.429688 1142.601562 564.355469 1143.417969 564.253906 C 1145.132812 564.074219 1146.863281 563.871094 1148.59375 563.640625 C 1148.9375 563.601562 1149.292969 563.566406 1149.636719 563.515625 C 1149.917969 563.476562 1150.195312 563.4375 1150.476562 563.398438 C 1150.65625 563.375 1150.84375 563.347656 1151.035156 563.324219 C 1152.21875 563.171875 1153.402344 563.003906 1154.585938 562.816406 C 1154.765625 562.800781 1154.941406 562.761719 1155.121094 562.738281 C 1155.425781 562.699219 1155.730469 562.648438 1156.046875 562.597656 C 1157.078125 562.445312 1158.109375 562.28125 1159.152344 562.101562 C 1159.40625 562.0625 1159.660156 562.027344 1159.914062 561.976562 C 1160.921875 561.808594 1161.925781 561.632812 1162.945312 561.453125 C 1163.542969 561.351562 1164.140625 561.238281 1164.738281 561.136719 C 1164.738281 561.136719 1164.738281 561.121094 1164.75 561.121094 C 1166.007812 560.894531 1167.28125 560.652344 1168.539062 560.398438 C 1169.8125 560.144531 1171.085938 559.875 1172.355469 559.609375 C 1173.324219 559.40625 1174.289062 559.1875 1175.257812 558.972656 C 1176.238281 558.757812 1177.203125 558.527344 1178.183594 558.296875 C 1179.023438 558.109375 1179.863281 557.902344 1180.703125 557.699219 C 1181.136719 557.597656 1181.566406 557.484375 1182.011719 557.382812 C 1182.699219 557.203125 1183.398438 557.027344 1184.097656 556.847656 C 1186.082031 556.339844 1188.066406 555.804688 1190.078125 555.246094 C 1190.664062 555.09375 1191.25 554.914062 1191.847656 554.75 C 1192.433594 554.582031 1193.03125 554.417969 1193.613281 554.238281 C 1193.855469 554.175781 1194.109375 554.101562 1194.351562 554.023438 C 1194.9375 553.859375 1195.523438 553.679688 1196.121094 553.488281 C 1197.136719 553.183594 1198.15625 552.867188 1199.175781 552.546875 C 1200.585938 552.117188 1201.984375 551.65625 1203.398438 551.1875 C 1204.046875 550.984375 1204.683594 550.765625 1205.332031 550.539062 C 1205.433594 550.511719 1205.546875 550.472656 1205.660156 550.4375 C 1206.589844 550.128906 1207.507812 549.8125 1208.433594 549.46875 C 1209.476562 549.113281 1210.507812 548.742188 1211.550781 548.363281 C 1212.582031 547.992188 1213.613281 547.613281 1214.65625 547.21875 C 1214.769531 547.179688 1214.886719 547.128906 1215 547.089844 C 1215.941406 546.734375 1216.894531 546.363281 1217.835938 545.996094 C 1218.890625 545.589844 1219.949219 545.167969 1221.003906 544.75 C 1222.058594 544.328125 1223.128906 543.898438 1224.183594 543.453125 C 1225.253906 543.007812 1226.308594 542.5625 1227.378906 542.101562 C 1227.960938 541.863281 1228.535156 541.605469 1229.109375 541.367188 C 1229.195312 541.328125 1229.285156 541.289062 1229.375 541.25 C 1230.050781 540.957031 1230.734375 540.652344 1231.410156 540.347656 C 1232.210938 539.992188 1233.011719 539.636719 1233.8125 539.265625 C 1235.976562 538.285156 1238.140625 537.269531 1240.316406 536.226562 C 1241.21875 535.792969 1242.121094 535.347656 1243.023438 534.902344 C 1243.265625 534.789062 1243.507812 534.660156 1243.761719 534.535156 C 1244.703125 534.074219 1245.644531 533.59375 1246.585938 533.109375 C 1246.839844 532.980469 1247.09375 532.855469 1247.351562 532.714844 C 1248.214844 532.28125 1249.078125 531.835938 1249.957031 531.367188 C 1249.96875 531.367188 1249.996094 531.351562 1250.019531 531.328125 C 1251.128906 530.753906 1252.246094 530.15625 1253.367188 529.558594 C 1254.042969 529.191406 1254.726562 528.820312 1255.414062 528.441406 C 1255.875 528.199219 1256.332031 527.945312 1256.789062 527.6875 C 1256.828125 527.664062 1256.878906 527.636719 1256.929688 527.613281 C 1257.082031 527.523438 1257.234375 527.433594 1257.398438 527.347656 C 1258.480469 526.746094 1259.574219 526.125 1260.65625 525.5 C 1261.433594 525.054688 1262.207031 524.609375 1262.972656 524.164062 C 1263.441406 523.898438 1263.914062 523.617188 1264.382812 523.339844 C 1265.121094 522.90625 1265.847656 522.472656 1266.570312 522.039062 C 1266.929688 521.824219 1267.285156 521.609375 1267.640625 521.40625 C 1268.492188 520.882812 1269.332031 520.375 1270.183594 519.851562 Z M 1270.183594 519.851562 " fill-opacity="1" fill-rule="nonzero"/></g><g clip-path="url(#6535064709)"><path fill="#2967ab" d="M 1273.566406 50.148438 L 1273.566406 517.742188 C 1272.4375 518.453125 1271.316406 519.152344 1270.183594 519.851562 C 1269.332031 520.375 1268.492188 520.882812 1267.640625 521.40625 C 1267.285156 521.609375 1266.925781 521.824219 1266.570312 522.039062 C 1265.847656 522.472656 1265.121094 522.90625 1264.382812 523.339844 C 1263.914062 523.617188 1263.441406 523.898438 1262.972656 524.164062 C 1262.207031 524.609375 1261.433594 525.054688 1260.65625 525.5 C 1259.574219 526.125 1258.480469 526.746094 1257.398438 527.347656 C 1257.234375 527.433594 1257.082031 527.523438 1256.929688 527.613281 C 1256.878906 527.636719 1256.828125 527.664062 1256.789062 527.6875 C 1256.332031 527.945312 1255.871094 528.199219 1255.414062 528.441406 C 1254.726562 528.820312 1254.039062 529.191406 1253.367188 529.558594 C 1252.246094 530.15625 1251.128906 530.753906 1250.019531 531.328125 C 1249.996094 531.351562 1249.96875 531.367188 1249.957031 531.367188 C 1249.078125 531.835938 1248.214844 532.28125 1247.347656 532.714844 C 1247.09375 532.855469 1246.839844 532.980469 1246.585938 533.109375 C 1245.644531 533.59375 1244.703125 534.074219 1243.761719 534.535156 C 1243.507812 534.660156 1243.265625 534.789062 1243.023438 534.902344 C 1242.121094 535.347656 1241.21875 535.792969 1240.316406 536.226562 C 1238.140625 537.28125 1235.964844 538.300781 1233.8125 539.265625 C 1233.011719 539.636719 1232.210938 539.992188 1231.410156 540.347656 C 1230.734375 540.652344 1230.046875 540.957031 1229.375 541.25 C 1229.285156 541.289062 1229.195312 541.328125 1229.105469 541.367188 C 1228.535156 541.605469 1227.960938 541.863281 1227.375 542.101562 C 1226.308594 542.5625 1225.253906 543.007812 1224.183594 543.453125 C 1223.128906 543.898438 1222.058594 544.328125 1221.003906 544.75 C 1219.949219 545.167969 1218.890625 545.589844 1217.835938 545.996094 C 1216.894531 546.363281 1215.941406 546.734375 1215 547.089844 C 1214.882812 547.128906 1214.769531 547.179688 1214.65625 547.21875 C 1213.613281 547.613281 1212.582031 547.992188 1211.550781 548.363281 C 1210.507812 548.742188 1209.476562 549.113281 1208.433594 549.46875 C 1207.507812 549.8125 1206.589844 550.128906 1205.660156 550.4375 C 1205.546875 550.472656 1205.445312 550.511719 1205.332031 550.539062 C 1204.683594 550.765625 1204.046875 550.984375 1203.398438 551.1875 C 1201.984375 551.65625 1200.585938 552.117188 1199.171875 552.546875 C 1198.15625 552.867188 1197.136719 553.183594 1196.121094 553.488281 C 1195.523438 553.679688 1194.9375 553.859375 1194.351562 554.023438 C 1194.109375 554.101562 1193.855469 554.175781 1193.613281 554.238281 C 1193.027344 554.417969 1192.429688 554.582031 1191.847656 554.75 C 1191.25 554.914062 1190.664062 555.09375 1190.078125 555.246094 C 1188.066406 555.804688 1186.082031 556.339844 1184.097656 556.847656 C 1183.398438 557.027344 1182.699219 557.203125 1182.011719 557.382812 C 1181.566406 557.484375 1181.132812 557.597656 1180.703125 557.699219 C 1179.863281 557.902344 1179.023438 558.109375 1178.183594 558.296875 C 1177.203125 558.527344 1176.238281 558.757812 1175.257812 558.972656 C 1174.289062 559.1875 1173.324219 559.40625 1172.355469 559.609375 C 1171.085938 559.875 1169.8125 560.144531 1168.539062 560.398438 C 1167.269531 560.652344 1165.996094 560.894531 1164.738281 561.136719 C 1164.152344 561.238281 1163.578125 561.339844 1162.992188 561.441406 C 1162.410156 561.542969 1161.824219 561.644531 1161.25 561.746094 C 1160.804688 561.824219 1160.359375 561.898438 1159.914062 561.976562 C 1159.660156 562.027344 1159.40625 562.0625 1159.152344 562.101562 C 1158.109375 562.28125 1157.078125 562.445312 1156.046875 562.597656 C 1155.730469 562.648438 1155.425781 562.699219 1155.121094 562.738281 C 1154.941406 562.765625 1154.761719 562.800781 1154.585938 562.816406 C 1153.402344 563.003906 1152.21875 563.171875 1151.035156 563.324219 C 1150.84375 563.347656 1150.65625 563.375 1150.476562 563.398438 C 1150.195312 563.4375 1149.917969 563.476562 1149.636719 563.515625 C 1149.292969 563.566406 1148.9375 563.601562 1148.59375 563.640625 C 1146.863281 563.871094 1145.132812 564.074219 1143.414062 564.253906 C 1142.601562 564.355469 1141.789062 564.429688 1140.972656 564.507812 C 1139.511719 564.660156 1138.046875 564.800781 1136.597656 564.914062 C 1135.746094 564.988281 1134.90625 565.054688 1134.054688 565.117188 C 1133.390625 565.167969 1132.730469 565.21875 1132.070312 565.257812 C 1131.738281 565.28125 1131.40625 565.308594 1131.074219 565.332031 C 1130.59375 565.359375 1130.121094 565.382812 1129.636719 565.410156 C 1128.988281 565.460938 1128.328125 565.484375 1127.679688 565.523438 C 1127.03125 565.5625 1126.382812 565.589844 1125.746094 565.625 L 1125.617188 565.625 C 1125.453125 565.640625 1125.3125 565.640625 1125.160156 565.652344 C 1124.589844 565.675781 1124.015625 565.703125 1123.445312 565.714844 C 1122.503906 565.753906 1121.5625 565.777344 1120.632812 565.804688 C 1119.628906 565.828125 1118.632812 565.855469 1117.628906 565.867188 C 1116.574219 565.894531 1115.519531 565.90625 1114.460938 565.90625 C 1113.902344 565.917969 1113.328125 565.917969 1112.769531 565.917969 L 1112.273438 565.917969 C 1111.242188 565.917969 1110.199219 565.90625 1109.171875 565.894531 C 1108.902344 565.894531 1108.621094 565.878906 1108.355469 565.878906 C 1107.820312 565.878906 1107.289062 565.867188 1106.738281 565.855469 L 1106.585938 565.855469 C 1105.683594 565.828125 1104.769531 565.804688 1103.851562 565.777344 C 1103.609375 565.765625 1103.355469 565.765625 1103.101562 565.753906 C 1101.96875 565.714844 1100.835938 565.675781 1099.707031 565.613281 C 1098.457031 565.5625 1097.210938 565.5 1095.976562 565.421875 C 1095.417969 565.398438 1094.859375 565.359375 1094.296875 565.320312 C 1094.109375 565.308594 1093.929688 565.296875 1093.738281 565.28125 C 1093.089844 565.246094 1092.453125 565.207031 1091.804688 565.15625 C 1090.8125 565.078125 1089.832031 565.003906 1088.839844 564.925781 L 1088.828125 564.925781 C 1088.410156 564.902344 1087.988281 564.863281 1087.570312 564.824219 C 1086.996094 564.773438 1086.410156 564.722656 1085.839844 564.671875 C 1085.570312 564.648438 1085.304688 564.621094 1085.039062 564.597656 C 1084.503906 564.542969 1083.957031 564.492188 1083.421875 564.441406 C 1083.230469 564.429688 1083.027344 564.40625 1082.835938 564.378906 C 1082.417969 564.339844 1081.996094 564.289062 1081.578125 564.238281 C 1081.425781 564.238281 1081.273438 564.214844 1081.105469 564.1875 C 1080.40625 564.125 1079.695312 564.046875 1078.980469 563.960938 C 1078.929688 563.960938 1078.867188 563.945312 1078.804688 563.933594 C 1078.15625 563.859375 1077.519531 563.78125 1076.871094 563.707031 L 1076.859375 563.707031 C 1075.867188 563.601562 1074.871094 563.476562 1073.894531 563.335938 C 1073.421875 563.273438 1072.964844 563.210938 1072.507812 563.144531 C 1071.78125 563.054688 1071.070312 562.953125 1070.34375 562.839844 C 1069.773438 562.765625 1069.199219 562.675781 1068.625 562.585938 C 1067.851562 562.472656 1067.074219 562.355469 1066.296875 562.230469 C 1066.058594 562.191406 1065.800781 562.152344 1065.5625 562.113281 C 1064.976562 562.027344 1064.402344 561.9375 1063.816406 561.847656 C 1062.570312 561.632812 1061.3125 561.429688 1060.066406 561.210938 C 1059.824219 561.160156 1059.570312 561.121094 1059.316406 561.070312 C 1057.941406 560.832031 1056.554688 560.574219 1055.179688 560.308594 C 1052.316406 559.773438 1049.457031 559.1875 1046.605469 558.554688 C 1045.179688 558.246094 1043.757812 557.929688 1042.332031 557.597656 C 1040.917969 557.269531 1039.496094 556.9375 1038.082031 556.59375 C 1036.746094 556.277344 1035.410156 555.945312 1034.0625 555.589844 C 1032.574219 555.21875 1031.085938 554.824219 1029.597656 554.417969 C 1028.183594 554.035156 1026.785156 553.65625 1025.375 553.261719 C 1023.976562 552.867188 1022.574219 552.460938 1021.164062 552.050781 C 1019.765625 551.644531 1018.363281 551.226562 1016.964844 550.792969 C 1015.566406 550.371094 1014.179688 549.941406 1012.78125 549.496094 C 1011.699219 549.164062 1010.617188 548.820312 1009.546875 548.464844 C 1008.277344 548.042969 1006.992188 547.625 1005.71875 547.203125 C 1005.402344 547.101562 1005.082031 546.988281 1004.765625 546.886719 C 1003.480469 546.453125 1002.195312 546.007812 1000.910156 545.5625 C 1000.324219 545.359375 999.742188 545.15625 999.15625 544.941406 C 998.75 544.8125 998.355469 544.671875 997.960938 544.519531 C 997.652344 544.417969 997.347656 544.316406 997.054688 544.203125 C 996.828125 544.125 996.585938 544.050781 996.355469 543.960938 C 996.28125 543.933594 996.203125 543.910156 996.140625 543.871094 C 996.039062 543.847656 995.949219 543.808594 995.847656 543.769531 C 994.945312 543.453125 994.054688 543.121094 993.152344 542.789062 C 992.667969 542.613281 992.171875 542.433594 991.6875 542.257812 C 989.042969 541.277344 986.394531 540.273438 983.761719 539.242188 C 981.777344 538.464844 979.78125 537.675781 977.796875 536.875 C 976.703125 536.429688 975.59375 535.984375 974.5 535.539062 C 972.300781 534.636719 970.101562 533.707031 967.910156 532.777344 C 966.601562 532.21875 965.304688 531.660156 963.992188 531.097656 C 963.980469 531.085938 963.96875 531.085938 963.957031 531.074219 C 963.253906 530.78125 962.554688 530.476562 961.855469 530.15625 C 959.628906 529.191406 957.417969 528.210938 955.203125 527.207031 C 955.089844 527.167969 954.972656 527.105469 954.847656 527.054688 C 953.585938 526.480469 952.328125 525.910156 951.082031 525.335938 C 950.382812 525.019531 949.683594 524.699219 948.996094 524.367188 C 948.753906 524.265625 948.511719 524.152344 948.269531 524.039062 C 947.671875 523.757812 947.074219 523.492188 946.488281 523.210938 C 945.878906 522.917969 945.253906 522.640625 944.644531 522.347656 C 943.4375 521.773438 942.226562 521.203125 941.019531 520.628906 C 939.566406 519.941406 938.117188 519.242188 936.679688 518.542969 C 935.714844 518.070312 934.734375 517.601562 933.765625 517.128906 C 931.515625 516.035156 929.265625 514.917969 927.011719 513.796875 C 926.464844 513.53125 925.929688 513.25 925.382812 512.984375 C 923.996094 512.285156 922.609375 511.582031 921.222656 510.882812 C 920.484375 510.515625 919.75 510.144531 919.023438 509.765625 C 917.800781 509.152344 916.582031 508.53125 915.371094 507.894531 C 914.152344 507.269531 912.929688 506.648438 911.722656 506.011719 C 909.378906 504.804688 907.039062 503.582031 904.710938 502.347656 C 903.402344 501.660156 902.089844 500.972656 900.792969 500.285156 C 900.753906 500.273438 900.730469 500.25 900.703125 500.234375 C 898.847656 499.257812 897.003906 498.277344 895.15625 497.285156 C 892.765625 496.011719 890.386719 494.726562 888.007812 493.429688 C 887.117188 492.945312 886.226562 492.476562 885.335938 491.992188 C 883.339844 490.898438 881.34375 489.816406 879.34375 488.722656 L 878.429688 488.226562 C 873.976562 485.796875 869.539062 483.355469 865.109375 480.910156 C 861.980469 479.179688 858.839844 477.4375 855.710938 475.707031 C 854.640625 475.121094 853.585938 474.539062 852.515625 473.953125 C 846.382812 470.554688 840.253906 467.160156 834.132812 463.800781 C 832.875 463.113281 831.601562 462.414062 830.328125 461.714844 C 828.320312 460.605469 826.308594 459.511719 824.300781 458.417969 C 823.714844 458.101562 823.117188 457.78125 822.53125 457.464844 C 820.507812 456.359375 818.472656 455.261719 816.449219 454.167969 C 900.691406 352.214844 930.308594 212.683594 1094.195312 119.9375 C 1157.054688 84.367188 1218.625 62.933594 1273.566406 50.148438 Z M 1273.566406 50.148438 " fill-opacity="1" fill-rule="nonzero"/></g><g clip-path="url(#5eccede2f0)"><path fill="#43a6e8" d="M 328.128906 592.242188 C 300.867188 623.601562 267.246094 654.515625 219.78125 681.738281 C 150.945312 721.226562 76.359375 739.574219 1.433594 744.101562 L 1.433594 526.289062 C 73.089844 546.570312 138.734375 562.027344 198.90625 573.324219 C 200.8125 573.679688 202.710938 574.023438 204.605469 574.378906 C 248.671875 582.496094 289.773438 588.371094 328.128906 592.242188 Z M 328.128906 592.242188 " fill-opacity="1" fill-rule="nonzero"/></g><g clip-path="url(#5517b18016)"><path fill="#1b427d" d="M 1270.183594 519.851562 C 1271.316406 519.152344 1272.4375 518.453125 1273.566406 517.742188 L 1273.566406 855.925781 L 1.433594 855.925781 L 1.433594 744.101562 C 76.359375 739.574219 150.945312 721.226562 219.78125 681.738281 C 267.246094 654.515625 300.867188 623.601562 328.128906 592.242188 C 433.714844 602.902344 518.503906 598.421875 587.035156 584.175781 C 588.714844 583.832031 590.378906 583.476562 592.035156 583.117188 C 642.488281 572.140625 683.984375 555.804688 718.355469 536.316406 C 719.617188 535.613281 720.851562 534.902344 722.085938 534.191406 C 747.132812 519.609375 768.328125 503.363281 786.441406 486.332031 C 797.28125 476.140625 807.191406 465.390625 816.453125 454.167969 C 818.472656 455.261719 820.507812 456.359375 822.53125 457.464844 C 823.117188 457.78125 823.714844 458.101562 824.300781 458.417969 C 826.308594 459.511719 828.320312 460.605469 830.332031 461.714844 C 831.601562 462.414062 832.875 463.113281 834.132812 463.800781 C 840.253906 467.160156 846.386719 470.554688 852.515625 473.953125 C 853.585938 474.539062 854.640625 475.121094 855.710938 475.707031 C 858.839844 477.4375 861.980469 479.179688 865.109375 480.910156 C 869.539062 483.355469 873.976562 485.796875 878.429688 488.226562 L 879.347656 488.722656 C 881.34375 489.816406 883.339844 490.898438 885.335938 491.992188 C 886.226562 492.476562 887.117188 492.945312 888.007812 493.429688 C 890.386719 494.726562 892.765625 496.011719 895.160156 497.285156 C 897.003906 498.277344 898.847656 499.257812 900.703125 500.234375 C 900.730469 500.25 900.753906 500.273438 900.792969 500.285156 C 902.089844 500.972656 903.402344 501.660156 904.710938 502.347656 C 907.039062 503.582031 909.382812 504.800781 911.722656 506.011719 C 912.929688 506.648438 914.152344 507.269531 915.371094 507.894531 C 916.582031 508.53125 917.800781 509.152344 919.023438 509.765625 C 919.75 510.144531 920.488281 510.515625 921.222656 510.882812 C 922.609375 511.582031 923.996094 512.285156 925.382812 512.984375 C 925.929688 513.25 926.464844 513.53125 927.011719 513.796875 C 929.265625 514.917969 931.515625 516.035156 933.769531 517.128906 C 934.734375 517.601562 935.714844 518.070312 936.679688 518.542969 C 938.117188 519.242188 939.570312 519.941406 941.019531 520.628906 C 942.226562 521.203125 943.4375 521.773438 944.644531 522.347656 C 945.253906 522.640625 945.878906 522.917969 946.488281 523.210938 C 947.074219 523.492188 947.671875 523.757812 948.269531 524.039062 C 948.511719 524.152344 948.753906 524.265625 948.996094 524.367188 C 949.683594 524.699219 950.382812 525.019531 951.082031 525.335938 C 952.328125 525.910156 953.585938 526.480469 954.847656 527.054688 C 954.972656 527.105469 955.089844 527.167969 955.203125 527.207031 C 957.417969 528.210938 959.628906 529.191406 961.855469 530.15625 C 962.554688 530.476562 963.257812 530.78125 963.957031 531.074219 C 963.96875 531.085938 963.980469 531.085938 963.992188 531.097656 C 965.304688 531.660156 966.601562 532.21875 967.910156 532.777344 C 970.101562 533.707031 972.300781 534.636719 974.5 535.539062 C 975.597656 535.984375 976.703125 536.429688 977.796875 536.875 C 979.78125 537.675781 981.777344 538.464844 983.761719 539.242188 C 986.394531 540.269531 989.042969 541.277344 991.6875 542.257812 C 992.171875 542.433594 992.667969 542.613281 993.152344 542.789062 C 994.054688 543.121094 994.945312 543.453125 995.847656 543.769531 C 995.949219 543.808594 996.039062 543.847656 996.140625 543.871094 C 996.75 544.089844 997.347656 544.316406 997.960938 544.519531 C 998.355469 544.671875 998.75 544.8125 999.15625 544.941406 C 999.742188 545.15625 1000.324219 545.359375 1000.910156 545.5625 C 1002.195312 546.007812 1003.480469 546.453125 1004.765625 546.886719 C 1005.082031 546.988281 1005.402344 547.101562 1005.71875 547.203125 C 1006.992188 547.625 1008.277344 548.042969 1009.550781 548.464844 C 1010.617188 548.820312 1011.699219 549.164062 1012.78125 549.496094 C 1014.179688 549.941406 1015.566406 550.371094 1016.964844 550.792969 C 1018.363281 551.226562 1019.765625 551.644531 1021.164062 552.050781 C 1022.574219 552.460938 1023.976562 552.867188 1025.375 553.261719 C 1026.785156 553.65625 1028.1875 554.035156 1029.597656 554.417969 C 1031.085938 554.824219 1032.574219 555.21875 1034.0625 555.589844 C 1035.410156 555.945312 1036.746094 556.277344 1038.082031 556.59375 C 1039.496094 556.9375 1040.921875 557.269531 1042.332031 557.597656 C 1043.757812 557.929688 1045.179688 558.246094 1046.605469 558.554688 C 1049.457031 559.175781 1052.316406 559.761719 1055.179688 560.308594 C 1056.554688 560.574219 1057.941406 560.832031 1059.316406 561.070312 C 1059.570312 561.121094 1059.824219 561.160156 1060.066406 561.210938 C 1061.3125 561.429688 1062.570312 561.632812 1063.820312 561.847656 C 1064.402344 561.9375 1064.976562 562.027344 1065.5625 562.113281 C 1067.863281 562.496094 1070.179688 562.839844 1072.507812 563.144531 C 1073.957031 563.335938 1075.40625 563.527344 1076.859375 563.707031 L 1076.871094 563.707031 C 1077.519531 563.78125 1078.15625 563.859375 1078.804688 563.933594 C 1078.867188 563.945312 1078.929688 563.960938 1078.980469 563.960938 C 1079.695312 564.046875 1080.40625 564.125 1081.105469 564.1875 C 1081.273438 564.214844 1081.425781 564.238281 1081.578125 564.238281 C 1081.996094 564.289062 1082.417969 564.339844 1082.835938 564.378906 C 1083.027344 564.40625 1083.230469 564.429688 1083.421875 564.441406 C 1083.957031 564.492188 1084.503906 564.542969 1085.039062 564.59375 C 1085.304688 564.621094 1085.570312 564.648438 1085.839844 564.671875 C 1086.410156 564.722656 1086.996094 564.773438 1087.570312 564.824219 C 1087.988281 564.863281 1088.410156 564.902344 1088.828125 564.925781 L 1088.839844 564.925781 C 1089.832031 565.003906 1090.8125 565.078125 1091.804688 565.15625 C 1092.453125 565.207031 1093.089844 565.246094 1093.738281 565.28125 C 1093.929688 565.296875 1094.109375 565.308594 1094.300781 565.320312 C 1094.859375 565.359375 1095.417969 565.398438 1095.976562 565.421875 C 1097.210938 565.5 1098.457031 565.5625 1099.707031 565.613281 C 1100.835938 565.675781 1101.96875 565.714844 1103.101562 565.753906 C 1103.355469 565.765625 1103.609375 565.765625 1103.851562 565.777344 C 1104.769531 565.804688 1105.683594 565.828125 1106.585938 565.855469 L 1106.742188 565.855469 C 1107.289062 565.867188 1107.820312 565.878906 1108.355469 565.878906 C 1108.625 565.878906 1108.902344 565.894531 1109.171875 565.894531 C 1110.199219 565.90625 1111.242188 565.917969 1112.273438 565.917969 L 1112.769531 565.917969 C 1113.332031 565.917969 1113.902344 565.917969 1114.460938 565.90625 C 1115.519531 565.90625 1116.574219 565.894531 1117.628906 565.867188 C 1118.636719 565.855469 1119.628906 565.828125 1120.632812 565.804688 C 1121.816406 565.777344 1123.011719 565.742188 1124.207031 565.675781 C 1125.148438 565.652344 1126.089844 565.613281 1127.03125 565.550781 C 1127.894531 565.511719 1128.773438 565.472656 1129.640625 565.410156 C 1130.121094 565.382812 1130.59375 565.359375 1131.078125 565.332031 C 1131.40625 565.308594 1131.738281 565.28125 1132.070312 565.257812 C 1132.730469 565.21875 1133.390625 565.167969 1134.054688 565.117188 C 1134.90625 565.054688 1135.746094 564.988281 1136.597656 564.914062 C 1138.046875 564.800781 1139.511719 564.660156 1140.972656 564.507812 C 1141.789062 564.429688 1142.601562 564.355469 1143.417969 564.253906 C 1145.132812 564.074219 1146.863281 563.871094 1148.59375 563.640625 C 1148.9375 563.601562 1149.292969 563.566406 1149.636719 563.515625 C 1149.917969 563.476562 1150.195312 563.4375 1150.476562 563.398438 C 1150.65625 563.375 1150.84375 563.347656 1151.035156 563.324219 C 1152.21875 563.171875 1153.402344 563.003906 1154.585938 562.816406 C 1154.761719 562.800781 1154.941406 562.761719 1155.121094 562.738281 C 1155.425781 562.699219 1155.730469 562.648438 1156.046875 562.597656 C 1157.078125 562.445312 1158.109375 562.28125 1159.152344 562.101562 C 1159.40625 562.0625 1159.660156 562.027344 1159.914062 561.976562 C 1160.359375 561.898438 1160.804688 561.820312 1161.25 561.746094 C 1162.421875 561.542969 1163.578125 561.351562 1164.75 561.121094 C 1166.007812 560.894531 1167.28125 560.652344 1168.539062 560.398438 C 1169.8125 560.144531 1171.085938 559.875 1172.355469 559.609375 C 1173.324219 559.40625 1174.289062 559.1875 1175.257812 558.972656 C 1176.238281 558.757812 1177.203125 558.527344 1178.183594 558.296875 C 1179.023438 558.109375 1179.863281 557.902344 1180.703125 557.699219 C 1181.136719 557.597656 1181.566406 557.484375 1182.011719 557.382812 C 1182.699219 557.203125 1183.398438 557.027344 1184.097656 556.847656 C 1186.082031 556.339844 1188.066406 555.804688 1190.078125 555.246094 C 1190.664062 555.09375 1191.25 554.914062 1191.847656 554.75 C 1192.429688 554.582031 1193.03125 554.417969 1193.613281 554.238281 C 1193.855469 554.175781 1194.109375 554.101562 1194.351562 554.023438 C 1194.9375 553.859375 1195.523438 553.679688 1196.121094 553.488281 C 1197.136719 553.183594 1198.15625 552.867188 1199.175781 552.546875 C 1200.585938 552.117188 1201.984375 551.65625 1203.398438 551.1875 C 1204.046875 550.984375 1204.683594 550.765625 1205.332031 550.539062 C 1206.363281 550.195312 1207.40625 549.839844 1208.433594 549.46875 C 1209.476562 549.113281 1210.507812 548.742188 1211.550781 548.363281 C 1212.582031 547.992188 1213.613281 547.613281 1214.65625 547.21875 C 1214.769531 547.179688 1214.886719 547.128906 1215 547.089844 C 1215.941406 546.734375 1216.894531 546.363281 1217.835938 545.996094 C 1218.890625 545.589844 1219.949219 545.167969 1221.003906 544.75 C 1222.058594 544.328125 1223.128906 543.898438 1224.183594 543.453125 C 1225.253906 543.007812 1226.308594 542.5625 1227.378906 542.101562 C 1227.960938 541.863281 1228.535156 541.605469 1229.105469 541.367188 C 1229.195312 541.328125 1229.285156 541.289062 1229.375 541.25 C 1230.046875 540.957031 1230.734375 540.652344 1231.410156 540.347656 C 1232.210938 539.992188 1233.011719 539.636719 1233.8125 539.265625 C 1235.976562 538.285156 1238.140625 537.269531 1240.316406 536.226562 C 1241.21875 535.792969 1242.121094 535.347656 1243.023438 534.902344 C 1243.265625 534.789062 1243.507812 534.660156 1243.761719 534.535156 C 1244.703125 534.074219 1245.644531 533.59375 1246.585938 533.109375 C 1246.839844 532.980469 1247.09375 532.855469 1247.351562 532.714844 C 1248.214844 532.28125 1249.078125 531.835938 1249.957031 531.367188 C 1249.96875 531.367188 1249.996094 531.351562 1250.019531 531.328125 C 1251.128906 530.753906 1252.246094 530.15625 1253.367188 529.558594 C 1254.042969 529.191406 1254.726562 528.820312 1255.414062 528.441406 C 1255.871094 528.199219 1256.332031 527.945312 1256.789062 527.6875 C 1256.828125 527.664062 1256.878906 527.636719 1256.929688 527.613281 C 1257.082031 527.523438 1257.234375 527.433594 1257.398438 527.347656 C 1258.480469 526.746094 1259.574219 526.125 1260.65625 525.5 C 1261.433594 525.054688 1262.207031 524.609375 1262.972656 524.164062 C 1263.441406 523.898438 1263.914062 523.617188 1264.382812 523.339844 C 1265.121094 522.90625 1265.847656 522.472656 1266.570312 522.039062 C 1266.929688 521.824219 1267.285156 521.609375 1267.640625 521.40625 C 1268.492188 520.882812 1269.332031 520.375 1270.183594 519.851562 Z M 1270.183594 519.851562 " fill-opacity="1" fill-rule="nonzero"/></g><g clip-path="url(#397443c475)"><path fill="#dac0a3" d="M 1273.566406 647.464844 L 1273.566406 651.449219 C 1261.089844 653.40625 1248.761719 655.253906 1236.601562 656.980469 C 1134.652344 671.535156 1042.101562 678.851562 960.378906 678.851562 C 932.828125 678.851562 906.53125 678.023438 881.484375 676.359375 C 793.363281 670.492188 718.800781 654.144531 659.890625 627.746094 C 632.613281 615.535156 608.265625 600.96875 587.035156 584.175781 C 568.867188 569.835938 552.980469 553.859375 539.457031 536.351562 C 527.523438 520.882812 516.355469 502.917969 504.523438 483.902344 C 493.289062 465.824219 481.574219 446.980469 468.421875 429.183594 L 468.40625 429.183594 C 460.964844 419.109375 453.054688 409.351562 444.503906 400.265625 C 443.5 399.210938 442.507812 398.167969 441.488281 397.125 C 418.132812 373.144531 390.003906 354.175781 353.722656 346.53125 C 287.152344 332.496094 226.066406 363.15625 161.390625 395.625 C 110.859375 420.976562 59.160156 446.917969 1.433594 453.992188 L 1.433594 450.125 C 58.421875 443.023438 109.628906 417.328125 159.6875 392.199219 C 224.972656 359.441406 286.644531 328.488281 354.511719 342.789062 C 392.511719 350.804688 421.65625 370.828125 445.738281 396.003906 C 446.769531 397.0625 447.785156 398.140625 448.777344 399.222656 C 456.90625 408.015625 464.464844 417.378906 471.574219 427.035156 C 484.765625 444.894531 496.507812 463.773438 507.765625 481.878906 C 519.535156 500.820312 530.664062 518.707031 542.484375 534.011719 C 556.453125 552.101562 572.976562 568.476562 592.035156 583.117188 C 658.414062 634.144531 755.476562 664.15625 881.738281 672.554688 C 989.78125 679.742188 1120.773438 671.320312 1273.566406 647.464844 Z M 1273.566406 647.464844 " fill-opacity="1" fill-rule="nonzero"/></g><path fill="#dac0a3" d="M 1273.566406 504.242188 L 1273.566406 508.378906 C 1207.265625 533.007812 1145.503906 551.925781 1088.839844 564.925781 L 1088.828125 564.925781 C 1083.320312 566.199219 1077.863281 567.40625 1072.457031 568.566406 C 986.078125 586.984375 909.890625 591.605469 846.015625 582.277344 C 797.230469 575.179688 754.371094 559.734375 718.355469 536.316406 C 713.867188 533.414062 709.488281 530.375 705.214844 527.21875 C 689.503906 515.605469 673.859375 501.367188 657.28125 486.292969 C 619.539062 451.957031 577.953125 414.144531 526.441406 400.34375 C 510.25 396.003906 493.074219 394.03125 474.730469 395.292969 C 465.785156 395.902344 457.160156 397.238281 448.777344 399.222656 C 447.339844 399.542969 445.917969 399.898438 444.503906 400.265625 C 391.238281 414.261719 348.214844 453.671875 303.09375 495.007812 C 272.15625 523.351562 240.683594 552.179688 204.605469 574.378906 C 168.832031 596.386719 128.53125 611.910156 79.707031 613.980469 C 76.082031 614.136719 72.441406 614.210938 68.804688 614.210938 C 46.476562 614.210938 23.921875 611.3125 1.433594 605.546875 L 1.433594 601.589844 C 27.550781 608.382812 53.730469 611.273438 79.554688 610.164062 C 125.871094 608.195312 164.507812 593.867188 198.90625 573.324219 C 236.292969 551.007812 268.683594 521.339844 300.511719 492.195312 C 345.46875 451.015625 388.328125 411.753906 441.488281 397.125 C 442.902344 396.730469 444.3125 396.359375 445.738281 396.003906 C 454.972656 393.714844 464.527344 392.175781 474.464844 391.488281 C 495.429688 390.039062 514.851562 392.683594 533.019531 398.21875 C 582.746094 413.332031 623.097656 450.035156 659.851562 483.46875 C 676.351562 498.46875 691.933594 512.652344 707.480469 524.152344 C 712.210938 527.652344 717.085938 531.011719 722.085938 534.191406 C 804.0625 586.515625 921.53125 596.847656 1071.667969 564.835938 C 1073.398438 564.46875 1075.113281 564.101562 1076.859375 563.707031 L 1076.871094 563.707031 C 1136.851562 550.601562 1202.480469 530.753906 1273.566406 504.242188 Z M 1273.566406 504.242188 " fill-opacity="1" fill-rule="nonzero"/></svg>